<svg width="65" height="65" viewBox="0 0 65 65" fill="none" xmlns="http://www.w3.org/2000/svg">
<path d="M54.1937 41.6542C50.8625 41.6542 47.6396 41.1125 44.6333 40.1375C43.6854 39.8125 42.6292 40.0562 41.8979 40.7875L37.6458 46.1229C29.9812 42.4667 22.8042 35.5604 18.9854 27.625L24.2667 23.1292C24.9979 22.3708 25.2146 21.3146 24.9167 20.3667C23.9146 17.3604 23.4 14.1375 23.4 10.8062C23.4 9.34375 22.1812 8.125 20.7188 8.125H11.3479C9.88542 8.125 8.125 8.775 8.125 10.8062C8.125 35.9667 29.0604 56.875 54.1937 56.875C56.1167 56.875 56.875 55.1687 56.875 53.6792V44.3354C56.875 42.8729 55.6562 41.6542 54.1937 41.6542Z" fill="#F974CC"/>
</svg>
